<svg width="548" height="204" viewBox="0 0 548 204" fill="none" xmlns="http://www.w3.org/2000/svg">
<g filter="url(#filter0_d)">
<path d="M87.2724 42.518C75.0462 44.8997 65.0627 47.156 54.9474 54.2899C44.1594 61.8982 36.1862 70.8434 29.4727 81.8252C22.1867 93.7433 16.0749 106.044 12.0257 119.288C8.85268 129.667 4.36429 143.124 8.97518 153.745C15.3459 168.42 40.7166 166.465 52.7263 160.212C71.2333 150.577 83.2644 130.436 92.7312 113.352C99.2652 101.561 106.881 87.3082 105.094 73.5394C103.944 64.6827 96.7528 57.0381 93.534 48.6818C92.3086 45.5006 90.9533 53.1554 90.8848 53.5573C89.2758 63.0089 87.6649 72.8449 88.4498 82.4315C90.046 101.928 94.6157 130.552 122.166 127.751C133.226 126.627 137.867 117.524 144.082 110.068C149.841 103.159 155.911 96.4309 165.141 93.7992C172.291 91.7608 178.222 90.8935 182.802 97.2348C190.518 107.917 161.758 115.978 156.124 118.177C147.244 121.642 139.448 126.097 136.402 135.178C133.632 143.435 130.826 157.591 141.299 162.056C154.121 167.523 169.69 154.005 172.045 142.655C173.391 136.17 173.281 129.483 176.648 123.507C177.768 121.519 181.102 118 176.568 118C167.466 118 156.412 121.512 149.032 126.412C142.643 130.654 136.623 136.501 131.8 142.302C128.146 146.696 118.128 162.171 127.25 165.896C132.477 168.03 139.675 165.443 144.457 168.422C148.527 170.958 149.201 176.544 149.407 180.674C149.631 185.172 149.822 192.587 156.257 192.977C163.392 193.408 171.383 187.757 176.434 183.579C188.255 173.801 196.423 162.016 200.356 147.657C201.878 142.101 203.18 135.421 200.731 129.873C200.041 128.309 197.69 135.444 197.573 135.885C195.002 145.596 191.816 155.462 189.706 165.239C187.492 175.499 198.978 176.997 207.153 176.203C218.029 175.146 228.872 167.399 237.177 161.096C244.489 155.547 250.643 150.154 253.955 141.519C255.504 137.48 254.797 132.559 256.069 128.357C256.811 125.906 258.263 123.123 258.263 120.526C258.263 116.553 256.283 136.108 257.193 124.77C258.077 113.753 259.68 102.892 261.046 91.9299C261.393 89.1456 262.815 90.7173 265.515 90.7173C267.901 90.7173 270.317 90.0151 272.553 91.1215C277.671 93.6547 281.518 97.7921 287.511 98.7253C308.067 101.926 314.699 74.5623 316.812 60.7569C318.133 52.1295 317.195 42.2962 319.542 33.8785C319.754 33.1169 320.728 33.0789 320.558 33.3985C320.336 33.8176 313.802 32.7993 313.119 32.7417C312.758 32.7113 306.262 32.2918 306.858 31.5039C308.749 29.0041 315.474 28.786 318.257 28.3967C321.512 27.9414 352.802 25.9539 353.205 22.1571C353.291 21.3363 336.511 21.6415 335.436 21.7023C332.706 21.857 327.394 21.7618 328.399 25.5926C331.828 38.6629 338.809 50.4669 341.297 63.8641C344.427 80.7187 345.386 97.1494 343.036 114.16C340.723 130.901 326.676 160.39 304.021 149.931C297.485 146.913 290.767 142.45 288.073 135.784C286.945 132.994 286.08 127.144 290.99 127.953C297.344 129 302.745 133.706 308.41 136.34C321.156 142.268 332.916 140.275 346.301 136.492C362.378 131.947 375.943 120.529 380.927 105.319C383.639 97.0411 384.001 70.7858 383.014 79.4001C382.205 86.4655 382.395 93.7499 382.854 100.822C383.443 109.908 383.803 120.408 389.998 127.928C406 147.35 419.086 118.237 422.564 105.723C424.079 100.272 424.794 94.8198 425.668 89.2774C426.24 85.6545 427.91 95.0896 428.13 96.0223C431.61 110.768 432.791 124.746 431.181 139.952C429.279 157.909 426.149 176.405 406.134 182.796C387.977 188.594 368.822 176.982 380.659 158.823C386.381 150.045 396.225 143.086 403.967 135.961C415.169 125.651 425.925 115.012 436.211 103.879C459.255 78.938 468.697 48.8753 468.697 16.069C468.697 14.727 468.055 0.576418 468.483 3.36235C470.311 15.2731 472.342 27.1043 473.674 39.0824C475.959 59.62 475.3 80.6915 480.578 100.822C481.225 103.29 481.466 106.839 482.986 109.057C483.675 110.062 484.54 108.644 484.913 108.123C487.864 103.999 490.203 99.3427 492.753 95.0118C498.415 85.3984 505.285 75.7748 508.247 65.0009C510.667 56.1955 511.44 47.0888 512.1 38.0467C512.712 29.6753 512.62 21.3387 512.207 12.9618C512.15 11.8051 511.72 2.77121 512.582 8.26312C515.91 29.4723 521.454 50.8199 526.149 71.7963C527.781 79.0879 530.094 86.7947 535.702 92.3341C540.113 96.691 541 94.6573 541 89.8079" stroke="black" stroke-width="5" stroke-linecap="round" shape-rendering="crispEdges"/>
</g>
<defs>
<filter id="filter0_d" x="0.5" y="0.499969" width="547" height="203" filterUnits="userSpaceOnUse" color-interpolation-filters="sRGB">
<feFlood flood-opacity="0" result="BackgroundImageFix"/>
<feColorMatrix in="SourceAlpha" type="matrix" values="0 0 0 0 0 0 0 0 0 0 0 0 0 0 0 0 0 0 127 0" result="hardAlpha"/>
<feOffset dy="4"/>
<feGaussianBlur stdDeviation="2"/>
<feComposite in2="hardAlpha" operator="out"/>
<feColorMatrix type="matrix" values="0 0 0 0 0 0 0 0 0 0 0 0 0 0 0 0 0 0 0.25 0"/>
<feBlend mode="normal" in2="BackgroundImageFix" result="effect1_dropShadow"/>
<feBlend mode="normal" in="SourceGraphic" in2="effect1_dropShadow" result="shape"/>
</filter>
</defs>
</svg>
